<?xml version="1.0" encoding="UTF-8"?>
<svg xmlns="http://www.w3.org/2000/svg" version="1.1" width="1024" height="1024" viewBox="0 0 500 500"><rect x="0" y="0" width="500" height="500" fill="#ffffff"/><g transform="scale(16.129)"><g transform="translate(1,1)"><g><g transform="translate(3.5,3.5)"><path fill-rule="evenodd" d="M-3.5 -3.5L3.5 -3.5L3.5 3.5L-3.5 3.5ZM-2.5 -2.5L-2.5 2.5L2.5 2.5L2.5 -2.5Z" fill="#000000"/><path fill-rule="evenodd" d="M-1.5 -1.5L1.5 -1.5L1.5 1.5L-1.5 1.5Z" fill="#000000"/></g></g><g><g transform="translate(25.5,3.5)"><g transform="rotate(90)"><path fill-rule="evenodd" d="M-3.5 -3.5L3.5 -3.5L3.5 3.5L-3.5 3.5ZM-2.5 -2.5L-2.5 2.5L2.5 2.5L2.5 -2.5Z" fill="#000000"/><path fill-rule="evenodd" d="M-1.5 -1.5L1.5 -1.5L1.5 1.5L-1.5 1.5Z" fill="#000000"/></g></g></g><g><g transform="translate(3.5,25.5)"><g transform="rotate(-90)"><path fill-rule="evenodd" d="M-3.5 -3.5L3.5 -3.5L3.5 3.5L-3.5 3.5ZM-2.5 -2.5L-2.5 2.5L2.5 2.5L2.5 -2.5Z" fill="#000000"/><path fill-rule="evenodd" d="M-1.5 -1.5L1.5 -1.5L1.5 1.5L-1.5 1.5Z" fill="#000000"/></g></g></g><path fill-rule="evenodd" d="M8 0L8 2L9 2L9 0ZM11 0L11 1L10 1L10 3L8 3L8 4L9 4L9 6L8 6L8 8L5 8L5 9L4 9L4 8L2 8L2 9L4 9L4 10L5 10L5 11L9 11L9 13L8 13L8 12L5 12L5 14L3 14L3 15L4 15L4 16L3 16L3 17L4 17L4 18L5 18L5 17L4 17L4 16L5 16L5 15L7 15L7 16L6 16L6 17L10 17L10 21L11 21L11 23L10 23L10 22L9 22L9 21L8 21L8 24L9 24L9 25L8 25L8 27L10 27L10 28L11 28L11 29L13 29L13 28L12 28L12 27L11 27L11 26L9 26L9 25L10 25L10 24L11 24L11 25L13 25L13 26L14 26L14 28L15 28L15 26L14 26L14 25L13 25L13 24L15 24L15 25L17 25L17 28L16 28L16 29L18 29L18 25L21 25L21 27L25 27L25 29L26 29L26 28L27 28L27 29L28 29L28 28L29 28L29 26L28 26L28 25L29 25L29 24L27 24L27 23L28 23L28 21L29 21L29 19L28 19L28 18L25 18L25 19L26 19L26 21L27 21L27 23L26 23L26 22L25 22L25 20L23 20L23 19L24 19L24 18L23 18L23 19L22 19L22 20L20 20L20 19L21 19L21 18L20 18L20 17L23 17L23 16L24 16L24 17L25 17L25 14L26 14L26 15L27 15L27 16L26 16L26 17L28 17L28 16L29 16L29 15L27 15L27 13L25 13L25 14L24 14L24 11L26 11L26 8L25 8L25 9L24 9L24 10L23 10L23 12L22 12L22 14L21 14L21 11L22 11L22 10L21 10L21 8L20 8L20 7L21 7L21 6L20 6L20 5L19 5L19 6L18 6L18 3L19 3L19 2L21 2L21 0L19 0L19 2L18 2L18 3L17 3L17 2L16 2L16 3L14 3L14 5L13 5L13 3L12 3L12 2L14 2L14 0L13 0L13 1L12 1L12 0ZM15 0L15 1L16 1L16 0ZM11 3L11 4L10 4L10 6L9 6L9 7L10 7L10 6L11 6L11 10L12 10L12 11L11 11L11 12L10 12L10 13L9 13L9 15L8 15L8 14L7 14L7 13L6 13L6 14L7 14L7 15L8 15L8 16L10 16L10 13L11 13L11 12L13 12L13 13L12 13L12 14L11 14L11 17L12 17L12 18L11 18L11 19L12 19L12 20L11 20L11 21L13 21L13 22L12 22L12 23L14 23L14 22L15 22L15 23L16 23L16 22L17 22L17 23L19 23L19 24L20 24L20 23L19 23L19 22L20 22L20 21L19 21L19 20L17 20L17 19L16 19L16 16L19 16L19 17L17 17L17 18L19 18L19 19L20 19L20 18L19 18L19 17L20 17L20 16L19 16L19 14L20 14L20 15L21 15L21 14L20 14L20 10L19 10L19 9L17 9L17 8L15 8L15 7L16 7L16 5L17 5L17 4L16 4L16 5L14 5L14 6L13 6L13 7L12 7L12 6L11 6L11 5L12 5L12 3ZM20 3L20 4L21 4L21 3ZM14 6L14 7L15 7L15 6ZM17 6L17 7L18 7L18 6ZM19 6L19 7L20 7L20 6ZM0 8L0 11L1 11L1 12L0 12L0 16L1 16L1 15L2 15L2 14L1 14L1 12L3 12L3 13L4 13L4 11L3 11L3 10L1 10L1 8ZM8 8L8 9L5 9L5 10L9 10L9 11L10 11L10 10L9 10L9 9L10 9L10 8ZM13 8L13 11L14 11L14 10L16 10L16 11L15 11L15 12L14 12L14 14L13 14L13 15L14 15L14 18L13 18L13 21L15 21L15 22L16 22L16 21L17 21L17 20L16 20L16 19L15 19L15 15L14 15L14 14L17 14L17 15L18 15L18 13L19 13L19 11L18 11L18 13L17 13L17 10L16 10L16 9L14 9L14 8ZM22 8L22 9L23 9L23 8ZM27 8L27 12L28 12L28 9L29 9L29 8ZM23 14L23 15L24 15L24 14ZM12 16L12 17L13 17L13 16ZM0 18L0 19L1 19L1 18ZM2 18L2 19L3 19L3 20L1 20L1 21L4 21L4 20L5 20L5 21L7 21L7 20L9 20L9 18L8 18L8 19L7 19L7 18L6 18L6 19L7 19L7 20L5 20L5 19L3 19L3 18ZM27 19L27 21L28 21L28 19ZM15 20L15 21L16 21L16 20ZM21 21L21 24L24 24L24 21ZM22 22L22 23L23 23L23 22ZM17 24L17 25L18 25L18 24ZM25 24L25 26L26 26L26 24ZM22 25L22 26L24 26L24 25ZM19 26L19 27L20 27L20 26ZM27 26L27 28L28 28L28 26ZM8 28L8 29L9 29L9 28ZM19 28L19 29L21 29L21 28ZM22 28L22 29L24 29L24 28Z" fill="#000000"/></g></g></svg>
